<?xml version="1.0" standalone="no"?><!DOCTYPE svg PUBLIC "-//W3C//DTD SVG 1.1//EN" "http://www.w3.org/Graphics/SVG/1.1/DTD/svg11.dtd"><svg t="1715048529951" class="icon" viewBox="0 0 1024 1024" version="1.1" xmlns="http://www.w3.org/2000/svg" p-id="6060" xmlns:xlink="http://www.w3.org/1999/xlink" width="65" height="65"><path d="M713.728 730.624m-31.744 0a31.744 31.744 0 1 0 63.488 0 31.744 31.744 0 1 0-63.488 0Z" fill="#F79D06" p-id="6061"></path><path d="M713.728 545.28l-164.864 100.352v169.984l164.864 100.352 164.864-100.352v-169.984l-164.864-100.352z m118.272 243.712L713.728 860.16l-118.272-71.168v-116.736l118.272-71.68 118.272 71.68v116.736z" fill="#F79D06" p-id="6062"></path><path d="M650.752 108.544H144.896v803.328h358.4V615.424l271.36-159.232h47.104V279.552l-171.008-171.008zM404.992 424.96H330.752l-13.824 78.336h-41.472l33.792-189.44 120.32 0.512-5.632 35.328H344.064l-7.168 40.448h73.728L404.992 424.96zM568.32 504.32h-49.152l-19.968-51.712-35.84 51.712H411.136l68.608-100.352-35.328-90.112h49.152l17.408 44.032 30.208-44.032h51.712l-63.488 92.16 38.912 98.304zM664.576 266.24V189.44l76.8 76.8h-76.8z" fill="#327BFA" p-id="6063"></path></svg>